<svg id="visual" viewBox="0 0 900 600" width="900" height="600" xmlns="http://www.w3.org/2000/svg" xmlns:xlink="http://www.w3.org/1999/xlink" version="1.1"><g stroke-width="1" stroke-linejoin="bevel"><path d="M436 304L533 314L507 224Z" fill="#0c2435" stroke="#0c2435"></path><path d="M533 314L587 276L507 224Z" fill="#246688" stroke="#246688"></path><path d="M507 224L368 222L436 304Z" fill="#1d4e6b" stroke="#1d4e6b"></path><path d="M414 434L463 412L436 304Z" fill="#112e42" stroke="#112e42"></path><path d="M436 304L463 412L533 314Z" fill="#297ea6" stroke="#297ea6"></path><path d="M533 314L637 417L587 276Z" fill="#246688" stroke="#246688"></path><path d="M587 276L594 192L507 224Z" fill="#297ea6" stroke="#297ea6"></path><path d="M507 224L415 93L368 222Z" fill="#15384f" stroke="#15384f"></path><path d="M368 222L327 308L436 304Z" fill="#081a28" stroke="#081a28"></path><path d="M326 378L414 434L436 304Z" fill="#205a7a" stroke="#205a7a"></path><path d="M327 308L326 378L436 304Z" fill="#19435d" stroke="#19435d"></path><path d="M517 80L415 93L507 224Z" fill="#1d4e6b" stroke="#1d4e6b"></path><path d="M368 222L273 219L327 308Z" fill="#15384f" stroke="#15384f"></path><path d="M594 192L517 80L507 224Z" fill="#19435d" stroke="#19435d"></path><path d="M583 485L637 417L463 412Z" fill="#081a28" stroke="#081a28"></path><path d="M463 412L637 417L533 314Z" fill="#205a7a" stroke="#205a7a"></path><path d="M587 276L680 203L594 192Z" fill="#1d4e6b" stroke="#1d4e6b"></path><path d="M414 434L499 484L463 412Z" fill="#297ea6" stroke="#297ea6"></path><path d="M712 281L680 203L587 276Z" fill="#277297" stroke="#277297"></path><path d="M594 192L618 74L517 80Z" fill="#00101c" stroke="#00101c"></path><path d="M327 122L273 219L368 222Z" fill="#19435d" stroke="#19435d"></path><path d="M327 308L201 290L326 378Z" fill="#277297" stroke="#277297"></path><path d="M415 93L327 122L368 222Z" fill="#112e42" stroke="#112e42"></path><path d="M694 403L712 281L587 276Z" fill="#19435d" stroke="#19435d"></path><path d="M499 484L583 485L463 412Z" fill="#297ea6" stroke="#297ea6"></path><path d="M710 463L694 403L637 417Z" fill="#1d4e6b" stroke="#1d4e6b"></path><path d="M637 417L694 403L587 276Z" fill="#112e42" stroke="#112e42"></path><path d="M680 203L618 74L594 192Z" fill="#297ea6" stroke="#297ea6"></path><path d="M326 378L363 518L414 434Z" fill="#205a7a" stroke="#205a7a"></path><path d="M414 434L363 518L499 484Z" fill="#297ea6" stroke="#297ea6"></path><path d="M499 484L504 600L583 485Z" fill="#0c2435" stroke="#0c2435"></path><path d="M264 507L363 518L326 378Z" fill="#00101c" stroke="#00101c"></path><path d="M595 0L509 0L517 80Z" fill="#19435d" stroke="#19435d"></path><path d="M517 80L509 0L415 93Z" fill="#297ea6" stroke="#297ea6"></path><path d="M415 93L393 0L327 122Z" fill="#205a7a" stroke="#205a7a"></path><path d="M680 203L693 85L618 74Z" fill="#15384f" stroke="#15384f"></path><path d="M618 74L595 0L517 80Z" fill="#205a7a" stroke="#205a7a"></path><path d="M821 186L693 85L680 203Z" fill="#297ea6" stroke="#297ea6"></path><path d="M203 218L201 290L273 219Z" fill="#246688" stroke="#246688"></path><path d="M273 219L201 290L327 308Z" fill="#0c2435" stroke="#0c2435"></path><path d="M583 485L710 463L637 417Z" fill="#00101c" stroke="#00101c"></path><path d="M804 393L819 331L712 281Z" fill="#297ea6" stroke="#297ea6"></path><path d="M189 134L203 218L273 219Z" fill="#081a28" stroke="#081a28"></path><path d="M509 0L393 0L415 93Z" fill="#1d4e6b" stroke="#1d4e6b"></path><path d="M327 122L189 134L273 219Z" fill="#081a28" stroke="#081a28"></path><path d="M710 0L595 0L618 74Z" fill="#081a28" stroke="#081a28"></path><path d="M228 476L264 507L326 378Z" fill="#297ea6" stroke="#297ea6"></path><path d="M400 600L504 600L499 484Z" fill="#205a7a" stroke="#205a7a"></path><path d="M583 485L636 600L710 463Z" fill="#246688" stroke="#246688"></path><path d="M400 600L499 484L363 518Z" fill="#1d4e6b" stroke="#1d4e6b"></path><path d="M183 427L228 476L326 378Z" fill="#205a7a" stroke="#205a7a"></path><path d="M281 0L189 134L327 122Z" fill="#297ea6" stroke="#297ea6"></path><path d="M203 218L128 236L201 290Z" fill="#112e42" stroke="#112e42"></path><path d="M294 600L400 600L363 518Z" fill="#297ea6" stroke="#297ea6"></path><path d="M804 393L712 281L694 403Z" fill="#15384f" stroke="#15384f"></path><path d="M712 281L821 186L680 203Z" fill="#15384f" stroke="#15384f"></path><path d="M710 463L804 393L694 403Z" fill="#15384f" stroke="#15384f"></path><path d="M105 406L183 427L201 290Z" fill="#1d4e6b" stroke="#1d4e6b"></path><path d="M201 290L183 427L326 378Z" fill="#00101c" stroke="#00101c"></path><path d="M819 331L821 186L712 281Z" fill="#081a28" stroke="#081a28"></path><path d="M693 85L710 0L618 74Z" fill="#081a28" stroke="#081a28"></path><path d="M393 0L281 0L327 122Z" fill="#246688" stroke="#246688"></path><path d="M504 600L636 600L583 485Z" fill="#19435d" stroke="#19435d"></path><path d="M710 463L837 532L804 393Z" fill="#246688" stroke="#246688"></path><path d="M823 0L710 0L693 85Z" fill="#297ea6" stroke="#297ea6"></path><path d="M189 134L128 236L203 218Z" fill="#112e42" stroke="#112e42"></path><path d="M636 600L677 600L710 463Z" fill="#19435d" stroke="#19435d"></path><path d="M206 600L294 600L264 507Z" fill="#19435d" stroke="#19435d"></path><path d="M264 507L294 600L363 518Z" fill="#112e42" stroke="#112e42"></path><path d="M206 600L264 507L228 476Z" fill="#112e42" stroke="#112e42"></path><path d="M821 186L837 106L693 85Z" fill="#1d4e6b" stroke="#1d4e6b"></path><path d="M900 221L837 106L821 186Z" fill="#246688" stroke="#246688"></path><path d="M93 88L128 236L189 134Z" fill="#297ea6" stroke="#297ea6"></path><path d="M0 165L93 262L128 236Z" fill="#297ea6" stroke="#297ea6"></path><path d="M128 236L93 262L201 290Z" fill="#15384f" stroke="#15384f"></path><path d="M93 262L105 406L201 290Z" fill="#15384f" stroke="#15384f"></path><path d="M116 530L206 600L228 476Z" fill="#15384f" stroke="#15384f"></path><path d="M281 0L189 0L189 134Z" fill="#112e42" stroke="#112e42"></path><path d="M900 385L900 335L819 331Z" fill="#00101c" stroke="#00101c"></path><path d="M819 331L900 221L821 186Z" fill="#1d4e6b" stroke="#1d4e6b"></path><path d="M900 385L819 331L804 393Z" fill="#205a7a" stroke="#205a7a"></path><path d="M900 335L900 221L819 331Z" fill="#00101c" stroke="#00101c"></path><path d="M900 471L900 385L804 393Z" fill="#15384f" stroke="#15384f"></path><path d="M116 530L228 476L183 427Z" fill="#246688" stroke="#246688"></path><path d="M778 600L837 532L710 463Z" fill="#081a28" stroke="#081a28"></path><path d="M677 600L778 600L710 463Z" fill="#1d4e6b" stroke="#1d4e6b"></path><path d="M900 67L823 0L837 106Z" fill="#19435d" stroke="#19435d"></path><path d="M837 106L823 0L693 85Z" fill="#297ea6" stroke="#297ea6"></path><path d="M189 0L93 88L189 134Z" fill="#15384f" stroke="#15384f"></path><path d="M105 406L116 530L183 427Z" fill="#1d4e6b" stroke="#1d4e6b"></path><path d="M189 0L135 0L93 88Z" fill="#297ea6" stroke="#297ea6"></path><path d="M900 600L900 471L837 532Z" fill="#205a7a" stroke="#205a7a"></path><path d="M837 532L900 471L804 393Z" fill="#00101c" stroke="#00101c"></path><path d="M900 221L900 67L837 106Z" fill="#112e42" stroke="#112e42"></path><path d="M116 530L136 600L206 600Z" fill="#0c2435" stroke="#0c2435"></path><path d="M105 406L0 476L116 530Z" fill="#277297" stroke="#277297"></path><path d="M116 530L0 600L136 600Z" fill="#297ea6" stroke="#297ea6"></path><path d="M93 262L0 286L105 406Z" fill="#1d4e6b" stroke="#1d4e6b"></path><path d="M0 165L0 286L93 262Z" fill="#081a28" stroke="#081a28"></path><path d="M900 67L900 0L823 0Z" fill="#112e42" stroke="#112e42"></path><path d="M0 113L0 165L93 88Z" fill="#297ea6" stroke="#297ea6"></path><path d="M93 88L0 165L128 236Z" fill="#297ea6" stroke="#297ea6"></path><path d="M0 286L0 412L105 406Z" fill="#19435d" stroke="#19435d"></path><path d="M0 0L0 113L93 88Z" fill="#19435d" stroke="#19435d"></path><path d="M778 600L900 600L837 532Z" fill="#277297" stroke="#277297"></path><path d="M0 412L0 476L105 406Z" fill="#297ea6" stroke="#297ea6"></path><path d="M135 0L0 0L93 88Z" fill="#0c2435" stroke="#0c2435"></path><path d="M0 476L0 600L116 530Z" fill="#112e42" stroke="#112e42"></path></g></svg>