<?xml version="1.0" encoding="utf-8"?>
<!-- Generator: Adobe Illustrator 27.1.1, SVG Export Plug-In . SVG Version: 6.00 Build 0)  -->
<svg version="1.1" id="Calque_1" xmlns="http://www.w3.org/2000/svg" xmlns:xlink="http://www.w3.org/1999/xlink" x="0px" y="0px"
	 viewBox="0 0 256.9 252.2" style="enable-background:new 0 0 256.9 252.2;" xml:space="preserve">
<style type="text/css">
	.st0{fill:#9D891F;}
</style>
<g>
	<path class="st0" d="M145.4,114.9c-0.8-14.3-1.7-31.7-1.6-44.5h-0.4c-3.6,12-7.8,25-13,39.1l-18.2,50h-10.1l-16.8-49.1
		c-4.9-14.6-8.9-27.8-11.8-40h-0.4c-0.4,12.8-1,30-2,45.5l-2.8,44.3H55.7l7.2-103.1h17L97.5,107c4.2,12.6,7.7,24,10.4,34.7h0.4
		c2.7-10.4,6.3-21.8,10.9-34.7l18.4-49.9h17l6.4,103.1h-13.1L145.4,114.9L145.4,114.9z"/>
	<path class="st0" d="M198,111.8h-40v37.2h44.7v11.1h-58.1V57.1h55.8v11.1h-42.4v32.7h40L198,111.8L198,111.8L198,111.8z"/>
</g>
<g>
	<path class="st0" d="M60.9,32.7c0.8-1,1.8-2.1,2.9-3.2c2.1-2,4.1-3,6-3c1.9,0,3.8,0.7,5.6,2.6c1.8,1.9,2.7,4,2.6,6
		c-0.1,2.1-1.3,4.4-3.5,6.5c-1.1,1-2,1.8-2.8,2.4C71.7,44,60.9,32.7,60.9,32.7z M72.1,41.5c0.4-0.3,1-0.8,1.6-1.3
		c3.2-3,3.2-6.4,0.2-9.5c-2.6-2.7-5.8-3-8.9,0c-0.8,0.7-1.3,1.4-1.6,1.8C63.4,32.4,72.1,41.5,72.1,41.5z"/>
	<path class="st0" d="M85.3,23.1l-5.1,3.5l3.3,4.7l5.6-4l1,1.4l-7.3,5.1l-9.1-13l7-4.9l1,1.4l-5.3,3.8l2.9,4.1l5.1-3.5
		C84.4,21.7,85.3,23.1,85.3,23.1z M78.1,13.5l-0.9,4l-1.4,1l0.2-3.5C76.1,14.9,78.1,13.5,78.1,13.5z"/>
	<path class="st0" d="M95.1,26.1L83.3,14.3l2-1l5.7,5.9c1.6,1.6,3,3.1,4.2,4.5l0.1,0c-0.4-1.8-0.8-3.9-1.1-6.1l-1.2-8.2l2-1
		l2.1,16.7C97.2,25.1,95.1,26.1,95.1,26.1z"/>
	<path class="st0" d="M108.8,12.7l-5.8,1.9l1.8,5.4l6.5-2.2l0.5,1.6l-8.5,2.8l-5-15.1l8.1-2.7l0.5,1.6l-6.2,2.1l1.6,4.8l5.8-1.9
		C108.2,11,108.8,12.7,108.8,12.7z"/>
	<path class="st0" d="M111,3.4l2-0.4l2.6,13.9l6.7-1.2l0.3,1.7l-8.7,1.6L111,3.4z"/>
	<path class="st0" d="M136.6,8.8c0.1,5.4-3.1,8.4-7.1,8.5c-4.2,0.1-7.2-3.1-7.3-7.9c-0.1-5,2.9-8.4,7.1-8.5
		C133.6,0.9,136.5,4.1,136.6,8.8z M124.3,9.4c0.1,3.4,2,6.4,5.2,6.3c3.2-0.1,5-3.1,4.9-6.7c-0.1-3.2-1.8-6.4-5.2-6.3
		C125.9,2.7,124.2,5.9,124.3,9.4z"/>
	<path class="st0" d="M141.2,1.8c1,0,2.3,0,3.9,0.3c2,0.3,3.4,1,4.2,2c0.7,0.9,1.1,2.1,0.9,3.5c-0.2,1.4-0.8,2.5-1.7,3.2
		c-1.3,1-3.1,1.3-5.1,1c-0.6-0.1-1.2-0.2-1.6-0.4l-1,6.3l-2-0.3L141.2,1.8z M142,9.7c0.4,0.2,1,0.3,1.6,0.4c2.5,0.4,4.1-0.6,4.4-2.8
		c0.3-2.1-1-3.3-3.2-3.7c-0.9-0.1-1.6-0.2-1.9-0.1L142,9.7z"/>
	<path class="st0" d="M156.3,4.7c1,0.1,2.3,0.4,3.9,0.9c1.9,0.6,3.2,1.5,3.8,2.7c0.6,1,0.7,2.2,0.3,3.6c-0.4,1.4-1.2,2.3-2.2,2.8
		c-1.4,0.8-3.2,0.8-5.1,0.1c-0.6-0.2-1.1-0.4-1.5-0.7l-2,6.1l-1.9-0.6C151.4,19.6,156.3,4.7,156.3,4.7z M155.9,12.6
		c0.4,0.3,0.9,0.5,1.6,0.7c2.4,0.8,4.2,0.1,4.9-2c0.7-2-0.4-3.4-2.6-4.2c-0.9-0.3-1.5-0.4-1.9-0.4L155.9,12.6z"/>
	<path class="st0" d="M173.3,20.6l-5.5-2.8l-2.6,5.1l6.2,3.1l-0.8,1.5l-8-4l7.1-14.2l7.7,3.8l-0.8,1.5l-5.8-2.9l-2.2,4.5l5.5,2.8
		L173.3,20.6L173.3,20.6z"/>
	<path class="st0" d="M183.3,16.8l-5.4,7.7c-2.1,2.9-1.6,5,0.1,6.3c1.9,1.3,4.1,1,6.1-1.9l5.4-7.7l1.7,1.2l-5.4,7.6
		c-2.8,4-6.1,4.1-8.9,2.1c-2.6-1.9-3.6-4.8-0.7-8.8l5.4-7.6C181.6,15.6,183.3,16.8,183.3,16.8z"/>
	<path class="st0" d="M195.1,26.1c0.9,0.6,2.1,1.5,3.1,2.5c1.6,1.5,2.3,2.8,2.4,4.1c0.1,1-0.4,2.1-1.2,3c-1.4,1.5-3.4,1.6-5,0.8l0,0
		c0.6,1.2,0.3,2.5-0.6,3.9c-1.2,2-2,3.3-2.2,4l-1.5-1.5c0.1-0.5,0.8-1.7,1.9-3.5c1.2-1.9,1.1-3.1-0.1-4.4l-1.4-1.3l-4.8,4.9
		l-1.5-1.4L195.1,26.1L195.1,26.1z M191.5,32.7l1.5,1.5c1.6,1.5,3.4,1.6,4.7,0.3c1.4-1.5,1-3.2-0.6-4.7c-0.7-0.7-1.3-1.1-1.6-1.3
		L191.5,32.7z"/>
</g>
<g>
	<path class="st0" d="M102.3,196l0.9-16.4l2.1,0.6l-0.6,8.2c-0.2,2-0.3,4-0.5,5.6l0.1,0c0.7-1.4,1.8-3.1,2.9-4.9l4.4-7l2,0.6
		l-0.5,8.3c-0.1,1.9-0.3,3.9-0.6,5.5h0.1c0.8-1.6,1.8-3.1,2.8-4.9l4.4-7l2,0.6l-9,13.8l-2-0.6l0.6-8.5c0.1-2.1,0.3-3.7,0.5-5.3h-0.1
		c-0.7,1.4-1.5,2.8-2.7,4.6l-4.6,7.2L102.3,196L102.3,196z"/>
	<path class="st0" d="M132.6,193.8l-6.2-0.2l-0.2,5.7l6.9,0.2l-0.1,1.7l-8.9-0.3l0.5-15.9l8.6,0.3l-0.1,1.7l-6.5-0.2l-0.2,5l6.2,0.2
		L132.6,193.8L132.6,193.8z"/>
	<path class="st0" d="M140,185c0.8-0.4,2.2-0.9,3.6-1.2c2-0.5,3.4-0.4,4.5,0.1c0.9,0.4,1.6,1.2,1.9,2.4c0.4,1.5-0.4,3-1.8,4v0.1
		c1.6,0,3.6,0.8,4.1,3.1c0.3,1.3,0,2.5-0.6,3.4c-0.8,1.2-2.5,2.1-5,2.7c-1.4,0.3-2.4,0.5-3.1,0.6L140,185L140,185z M143.4,190.9
		l1.8-0.4c2.1-0.5,3.1-1.9,2.7-3.4c-0.4-1.8-1.9-2.2-4-1.7c-0.9,0.2-1.4,0.4-1.7,0.6L143.4,190.9L143.4,190.9z M145.2,198.2
		c0.4,0,1-0.1,1.7-0.3c2.1-0.5,3.8-1.7,3.3-3.9c-0.5-2.1-2.5-2.6-4.7-2.1l-1.7,0.4L145.2,198.2L145.2,198.2z"/>
</g>
<path d="M0,97.6c18.6,0.4,21.6-10,21.6-20.1c0-7.6-1.2-14.9-2.3-22.2c-1.4-7.4-2.5-14.6-2.5-22.1C16.8,9.9,32.6,0,53.1,0h3v9.5h-4.6
	c-17.3,0-23.5,8.9-23.5,24.6c0,6.9,1.2,13.8,2.3,20.6c1.2,6.8,2.3,13.6,2.3,20.6c0.1,14.8-6.7,23.5-16.5,26.4v0.5
	c9.8,3,16.6,12.3,16.5,26.9c0,6.9-1.2,13.8-2.3,20.5c-1.2,7-2.3,13.8-2.3,20.9c0,16.3,7.5,24.8,23.5,24.8h4.6v9.5h-3
	c-20.2,0-36.3-9.3-36.3-35.3c0-7.3,1.2-14.5,2.5-21.5c1.2-7.1,2.3-14.1,2.3-21.3c0-8.7-3-20.6-21.6-20.2L0,97.6L0,97.6z"/>
<path d="M256.9,106.6c-18.6-0.4-21.6,11.4-21.6,20.2c0,7.1,1.2,14.1,2.3,21.3c1.4,7,2.5,14.2,2.5,21.5c0,26-16.1,35.3-36.3,35.3h-3
	v-9.5h4.6c16,0,23.4-8.5,23.4-24.8c0-7.1-1.2-13.9-2.3-20.9c-1.2-6.8-2.3-13.6-2.3-20.5c-0.1-14.6,6.7-24,16.4-26.9v-0.5
	c-9.8-3-16.6-11.6-16.4-26.4c0-7,1.2-13.8,2.3-20.6c1.2-6.8,2.3-13.7,2.3-20.6c0-15.7-6.1-24.6-23.4-24.6h-4.6V0h3
	c20.6,0,36.3,9.9,36.3,33.2c0,7.5-1.2,14.7-2.5,22.1c-1.2,7.3-2.3,14.7-2.3,22.2c0,10.1,3,20.4,21.6,20.1V106.6L256.9,106.6z"/>
<path d="M177,224.9H79.4c-2.8,0-5.1-2.3-5.1-5.1l0,0c0-2.8,2.3-5.1,5.1-5.1H177c2.8,0,5.1,2.3,5.1,5.1l0,0
	C182.1,222.6,179.8,224.9,177,224.9z"/>
<path d="M159.2,238.6H97.6c-2.8,0-5.1-2.3-5.1-5.1l0,0c0-2.8,2.3-5.1,5.1-5.1h61.7c2.8,0,5.1,2.3,5.1,5.1l0,0
	C164.3,236.3,162,238.6,159.2,238.6z"/>
<path d="M151,252.2h-45.6c-2.8,0-5.1-2.3-5.1-5.1l0,0c0-2.8,2.3-5.1,5.1-5.1H151c2.8,0,5.1,2.3,5.1,5.1l0,0
	C156.1,250,153.8,252.2,151,252.2z"/>
</svg>
