<?xml version="1.0" encoding="UTF-8"?>
<svg id="Calque_2" data-name="Calque 2" xmlns="http://www.w3.org/2000/svg" viewBox="0 0 256.94 252.25">
  <defs>
    <style>
      .cls-1 {
        fill: #efeded;
      }

      .cls-2 {
        fill: #9d891f;
      }
    </style>
  </defs>
  <g id="Calque_2-2" data-name="Calque 2">
    <g>
      <g>
        <path class="cls-2" d="m145.4,114.89c-.8-14.33-1.74-31.73-1.64-44.48h-.42c-3.55,11.97-7.83,24.96-12.98,39.09l-18.21,50.02h-10.06l-16.8-49.1c-4.91-14.57-8.92-27.8-11.81-40.01h-.36c-.36,12.85-1.03,30.02-2.02,45.49l-2.75,44.27h-12.65l7.18-103.12h17.01l17.56,49.91c4.25,12.62,7.71,23.98,10.39,34.74h.4c2.71-10.44,6.31-21.81,10.91-34.73l18.4-49.92h17.03l6.39,103.12h-13.09l-2.48-45.28Z"/>
        <path class="cls-2" d="m198.04,111.83h-39.98v37.25h44.71v11.09h-58.1V57.05h55.75v11.09h-42.36v32.66h39.98v11.03Z"/>
      </g>
      <g>
        <path class="cls-2" d="m60.91,32.73c.77-1,1.75-2.12,2.92-3.25,2.13-2.03,4.12-2.98,6.02-3,1.92-.04,3.78.72,5.56,2.58,1.79,1.88,2.67,3.96,2.61,6.04-.05,2.1-1.27,4.37-3.5,6.5-1.06,1.01-1.99,1.8-2.82,2.43l-10.79-11.31Zm11.18,8.75c.44-.29,1-.79,1.58-1.35,3.17-3.02,3.2-6.44.24-9.54-2.57-2.73-5.75-2.99-8.88,0-.77.73-1.28,1.35-1.59,1.81l8.65,9.07Z"/>
        <path class="cls-2" d="m85.34,23.11l-5.05,3.54,3.29,4.69,5.63-3.95.99,1.41-7.3,5.13-9.11-13.01,7.01-4.92.99,1.41-5.34,3.75,2.88,4.11,5.05-3.54.97,1.39Zm-7.24-9.63l-.86,3.98-1.39.97.21-3.52,2.04-1.43Z"/>
        <path class="cls-2" d="m95.13,26.14l-11.81-11.82,1.99-1.01,5.74,5.87c1.58,1.6,2.97,3.06,4.19,4.52l.05-.02c-.43-1.84-.75-3.92-1.05-6.08l-1.15-8.22,1.96-.99,2.12,16.73-2.02,1.02Z"/>
        <path class="cls-2" d="m108.74,12.65l-5.84,1.94,1.81,5.44,6.53-2.17.54,1.62-8.48,2.82-5.01-15.07,8.14-2.71.54,1.62-6.18,2.06,1.59,4.77,5.84-1.94.54,1.61Z"/>
        <path class="cls-2" d="m110.97,3.42l2.03-.37,2.56,13.91,6.67-1.23.31,1.7-8.7,1.6-2.87-15.62Z"/>
        <path class="cls-2" d="m136.65,8.84c.13,5.45-3.11,8.44-7.15,8.54-4.21.1-7.21-3.09-7.33-7.89-.12-5.03,2.91-8.42,7.14-8.52,4.33-.11,7.23,3.15,7.34,7.87Zm-12.32.55c.08,3.4,2,6.39,5.23,6.32,3.25-.08,5.01-3.12,4.92-6.72-.08-3.16-1.81-6.42-5.21-6.34-3.4.08-5.02,3.27-4.94,6.75Z"/>
        <path class="cls-2" d="m141.16,1.79c1-.02,2.31.03,3.95.29,1.99.31,3.39.99,4.2,1.98.74.88,1.09,2.1.88,3.5-.22,1.42-.81,2.48-1.73,3.17-1.26.98-3.08,1.29-5.06.98-.61-.09-1.17-.2-1.61-.4l-.97,6.3-2.02-.31,2.38-15.51Zm.86,7.87c.43.2.99.33,1.65.43,2.46.38,4.12-.6,4.45-2.75.32-2.08-1.01-3.32-3.23-3.66-.89-.14-1.57-.16-1.94-.13l-.94,6.11Z"/>
        <path class="cls-2" d="m156.31,4.67c.99.14,2.27.41,3.85.93,1.91.63,3.18,1.54,3.81,2.65.58.99.73,2.25.29,3.59-.45,1.37-1.21,2.31-2.23,2.84-1.4.76-3.25.76-5.15.13-.59-.19-1.12-.39-1.53-.66l-1.99,6.05-1.94-.64,4.91-14.9Zm-.45,7.9c.39.27.92.49,1.56.7,2.36.78,4.17.09,4.85-1.97.66-2-.45-3.44-2.58-4.15-.86-.28-1.52-.41-1.89-.45l-1.93,5.87Z"/>
        <path class="cls-2" d="m173.34,20.55l-5.5-2.75-2.56,5.13,6.16,3.07-.76,1.53-8-3.99,7.09-14.21,7.67,3.83-.76,1.53-5.83-2.91-2.25,4.5,5.5,2.75-.76,1.52Z"/>
        <path class="cls-2" d="m183.32,16.78l-5.45,7.67c-2.05,2.89-1.64,5.02.1,6.26,1.9,1.35,4.05.97,6.07-1.88l5.45-7.67,1.68,1.19-5.37,7.55c-2.83,3.98-6.07,4.12-8.88,2.12-2.64-1.88-3.56-4.8-.7-8.82l5.42-7.62,1.68,1.19Z"/>
        <path class="cls-2" d="m195.1,26.06c.89.58,2.05,1.52,3.06,2.5,1.56,1.52,2.3,2.81,2.38,4.14.08,1.04-.35,2.14-1.21,3.03-1.45,1.5-3.38,1.56-4.96.81l-.04.04c.57,1.15.3,2.48-.58,3.93-1.17,1.95-1.96,3.3-2.17,3.97l-1.52-1.48c.14-.5.83-1.72,1.9-3.45,1.18-1.89,1.15-3.09-.13-4.43l-1.39-1.35-4.8,4.93-1.47-1.43,10.92-11.22Zm-3.57,6.61l1.5,1.46c1.57,1.53,3.4,1.64,4.67.34,1.44-1.48,1-3.16-.55-4.67-.71-.69-1.27-1.11-1.58-1.29l-4.04,4.15Z"/>
      </g>
      <g>
        <path class="cls-2" d="m102.29,196.02l.88-16.36,2.07.65-.58,8.24c-.15,2.03-.33,4.04-.52,5.59l.05.02c.71-1.43,1.75-3.09,2.87-4.88l4.07-6.46c.21-.33.6-.47.97-.36l.77.24c.37.12.62.47.59.87l-.5,7.59c-.14,1.95-.29,3.86-.56,5.53h.05c.82-1.55,1.77-3.11,2.82-4.85l4.04-6.47c.2-.33.6-.48.97-.36l.31.1c.54.17.77.8.46,1.27l-8.4,12.89-2.04-.64.55-8.48c.13-2.1.27-3.68.54-5.27h-.05c-.72,1.43-1.54,2.79-2.71,4.58l-4.6,7.23-2.06-.64Z"/>
        <path class="cls-2" d="m131.71,193.8l-4.45-.14c-.47-.01-.86.35-.88.82l-.16,4.89,6.88.22-.05,1.71-8.93-.29.48-15.03c.01-.47.41-.84.88-.82l6.87.22c.47.01.84.41.82.88h0c-.01.48-.41.85-.88.83l-4.82-.15c-.47-.01-.86.35-.88.82l-.11,3.33c-.01.47.35.86.82.88l4.45.14c.47.01.84.41.82.88h0c-.02.47-.41.84-.88.82Z"/>
        <path class="cls-2" d="m140.14,185.66c-.09-.41.12-.83.51-.98.8-.32,1.84-.65,2.9-.89,2-.46,3.36-.42,4.5.14.94.42,1.65,1.23,1.93,2.44.35,1.5-.35,3.04-1.83,4v.06c1.57.01,3.57.83,4.1,3.14.31,1.32.02,2.46-.61,3.39-.83,1.25-2.47,2.1-5,2.69-1.38.32-2.45.47-3.14.55l-3.36-14.54Zm3.11,4.36c.11.46.56.74,1.02.64l1-.23c2.09-.48,3.07-1.88,2.72-3.38-.41-1.79-1.94-2.21-3.96-1.74-.41.1-.74.19-1.01.27-.42.13-.67.57-.57,1l.8,3.45Zm1.9,8.23c.43-.01.98-.12,1.71-.29,2.07-.48,3.8-1.68,3.28-3.93-.49-2.1-2.51-2.56-4.69-2.06l-.83.19c-.46.11-.74.56-.64,1.02l1.17,5.07Z"/>
      </g>
      <path class="cls-1" d="m0,97.6c18.63.39,21.65-9.96,21.65-20.05,0-7.58-1.16-14.91-2.31-22.23-1.35-7.39-2.51-14.65-2.51-22.1C16.83,9.9,32.58,0,53.14,0h3.02v9.51h-4.56c-17.35,0-23.45,8.87-23.45,24.61,0,6.87,1.16,13.81,2.31,20.56,1.16,6.81,2.31,13.56,2.31,20.56.13,14.78-6.68,23.45-16.45,26.41v.51c9.77,2.96,16.58,12.34,16.45,26.92,0,6.94-1.16,13.75-2.31,20.5-1.16,7-2.31,13.81-2.31,20.95,0,16.32,7.45,24.8,23.45,24.8h4.56v9.51h-3.02c-20.17,0-36.3-9.32-36.3-35.34,0-7.26,1.16-14.46,2.51-21.46,1.16-7.13,2.31-14.14,2.31-21.27,0-8.74-3.02-20.56-21.65-20.17v-9Z"/>
      <path class="cls-1" d="m256.94,106.59c-18.63-.39-21.65,11.44-21.65,20.17,0,7.13,1.16,14.14,2.31,21.27,1.35,7,2.51,14.2,2.51,21.46,0,26.02-16.13,35.34-36.3,35.34h-3.02v-9.51h4.56c16,0,23.45-8.48,23.45-24.8,0-7.13-1.16-13.94-2.31-20.95-1.16-6.75-2.31-13.56-2.31-20.5-.13-14.58,6.68-23.97,16.45-26.92v-.51c-9.77-2.96-16.58-11.63-16.45-26.41,0-7,1.16-13.75,2.31-20.56,1.16-6.75,2.31-13.69,2.31-20.56,0-15.74-6.1-24.61-23.45-24.61h-4.56V0h3.02c20.56,0,36.3,9.89,36.3,33.22,0,7.45-1.16,14.71-2.51,22.1-1.16,7.32-2.31,14.65-2.31,22.23,0,10.09,3.02,20.43,21.65,20.05v9Z"/>
      <rect class="cls-1" x="74.29" y="214.69" width="107.82" height="10.16" rx="5.08" ry="5.08"/>
      <rect class="cls-1" x="92.5" y="228.39" width="71.82" height="10.16" rx="5.08" ry="5.08"/>
      <rect class="cls-1" x="100.3" y="242.08" width="55.79" height="10.16" rx="5.08" ry="5.08"/>
    </g>
  </g>
</svg>