<?xml version="1.0" encoding="utf-8"?>
<!-- Generator: Adobe Illustrator 27.2.0, SVG Export Plug-In . SVG Version: 6.00 Build 0)  -->
<svg version="1.1" id="Calque_1" xmlns="http://www.w3.org/2000/svg" xmlns:xlink="http://www.w3.org/1999/xlink" 
	 viewBox="0 0 50 50" style="enable-background:new 0 0 1200 1200;" xml:space="preserve">
<style type="text/css">
	.st0{fill:#FFFFFF;}
</style>
<g>
	<path class="st0" d="M612.3,642h-57.6c-1.2,0-1.2,2.4,0,2.4c0,0,8.4,6,28.8,4.8c20.4,1.2,28.8-4.8,28.8-4.8
		C613.5,644.4,613.5,642,612.3,642L612.3,642z"/>
	<path class="st0" d="M769.5,69.6c-50.4-27.6-186-25.2-186-25.2s-135.6-2.4-186,25.2C347.1,97.2,357.9,612,357.9,612
		s13.2,439.2,51.6,476.4c37.2,38.4,174,36,174,36s136.8,2.4,175.2-34.8c38.4-38.4,51.6-476.4,51.6-476.4S821.1,98.4,769.5,69.6
		L769.5,69.6z M407.1,841.2c1.2-4.8,1.2-13.2,28.8-13.2c36,0,57.6,28.8,57.6,40.8c-4.8,16.8-44.4,10.8-52.8,8.4
		C404.7,867.6,405.9,847.2,407.1,841.2L407.1,841.2z M402.3,766.8c1.2-4.8,1.2-13.2,28.8-13.2c36,0,57.6,28.8,57.6,40.8
		c-4.8,16.8-44.4,10.8-52.8,8.4C399.9,792,401.1,771.6,402.3,766.8L402.3,766.8z M411.9,918c1.2-4.8,1.2-13.2,28.8-13.2
		c36,0,57.6,28.8,57.6,40.8c-4.8,16.8-44.4,10.8-52.8,8.4C409.5,944.4,410.7,922.8,411.9,918L411.9,918z M451.5,1027.2
		c-36-10.8-34.8-31.2-33.6-37.2c1.2-4.8,1.2-13.2,28.8-13.2c36,0,57.6,28.8,57.6,40.8C499.5,1035.6,459.9,1029.6,451.5,1027.2
		L451.5,1027.2z M581.1,1050c-13.2,0-45.6-9.6-45.6-27.6c0-18,32.4-21.6,45.6-21.6c13.2,0,45.6,3.6,45.6,21.6
		C626.7,1039.2,594.3,1050,581.1,1050z M581.1,973.2c-13.2,0-45.6-9.6-45.6-27.6s32.4-21.6,45.6-21.6c13.2,0,45.6,3.6,45.6,21.6
		C626.7,962.4,594.3,973.2,581.1,973.2z M581.1,897.6c-13.2,0-45.6-9.6-45.6-27.6s32.4-21.6,45.6-21.6c13.2,0,45.6,3.6,45.6,21.6
		C626.7,888,594.3,897.6,581.1,897.6z M581.1,822c-13.2,0-45.6-9.6-45.6-27.6s32.4-21.6,45.6-21.6c13.2,0,45.6,3.6,45.6,21.6
		C626.7,811.2,594.3,822,581.1,822z M704.7,1027.2c-8.4,2.4-48,8.4-52.8-8.4c0-12,21.6-40.8,57.6-40.8c27.6,0,27.6,7.2,28.8,13.2
		C739.5,996,740.7,1016.4,704.7,1027.2L704.7,1027.2z M710.7,955.2c-8.4,2.4-48,8.4-52.8-8.4c0-12,21.6-40.8,57.6-40.8
		c27.6,0,27.6,7.2,28.8,13.2C745.5,922.8,746.7,944.4,710.7,955.2L710.7,955.2z M715.5,878.4c-8.4,2.4-48,8.4-52.8-8.4
		c0-12,21.6-40.8,57.6-40.8c27.6,0,27.6,7.2,28.8,13.2C750.3,847.2,751.5,867.6,715.5,878.4L715.5,878.4z M720.3,802.8
		c-8.4,2.4-48,8.4-52.8-8.4c0-12,21.6-40.8,57.6-40.8c27.6,0,27.6,7.2,28.8,13.2C755.1,771.6,756.3,792,720.3,802.8L720.3,802.8z
		 M785.1,548.4c-32.4,169.2-141.6,210-201.6,210s-169.2-40.8-201.6-210c-14.4-108-8.4-176.4-8.4-176.4s16.8-256.8,43.2-285.6
		c26.4-27.6,166.8-25.2,166.8-25.2s140.4-3.6,166.8,25.2c26.4,28.8,43.2,285.6,43.2,285.6S799.5,440.4,785.1,548.4L785.1,548.4z"/>
	<path class="st0" d="M583.5,73.2c0,0-118.8-2.4-150,22.8c-31.2,25.2-31.2,301.2-31.2,301.2s2.4,129.6,21.6,171.6
		c19.2,43.2,48,58.8,48,58.8s61.2-13.2,111.6-13.2c50.4,0,111.6,13.2,111.6,13.2s27.6-15.6,48-58.8c19.2-43.2,21.6-171.6,21.6-171.6
		s0-276-31.2-301.2C702.3,72,583.5,73.2,583.5,73.2L583.5,73.2z M583.5,80.4c7.2,0,13.2,36,13.2,80.4s-6,80.4-13.2,80.4
		s-13.2-36-13.2-80.4C571.5,116.4,576.3,80.4,583.5,80.4L583.5,80.4z M747.9,358.8c0,0,2.4,33.6,0,93.6s-9.6,93.6-9.6,93.6
		c0,10.8-8.4,18-18,18c0,0-73.2,4.8-136.8,4.8c-63.6,0-136.8-4.8-136.8-4.8c-10.8,0-18-8.4-18-18c0,0-6-33.6-9.6-93.6s0-93.6,0-93.6
		c0-10.8,8.4-18,18-18c0,0,8.4-3.6,146.4-3.6s146.4,3.6,146.4,3.6C739.5,340.8,747.9,348,747.9,358.8L747.9,358.8z"/>
</g>
</svg>
